<?xml version="1.0" standalone="no"?><!DOCTYPE svg PUBLIC "-//W3C//DTD SVG 1.1//EN" "http://www.w3.org/Graphics/SVG/1.1/DTD/svg11.dtd"><svg t="1503664949125" class="icon" style="" viewBox="0 0 1024 1024" version="1.1" xmlns="http://www.w3.org/2000/svg" p-id="4322" xmlns:xlink="http://www.w3.org/1999/xlink" width="200" height="200"><defs><style type="text/css"></style></defs><path d="M42.987 385.28c52.8-246.72 325.12-315.84 543.040-317.44 16.32 167.040-110.72 297.28-166.72 445.12 161.28-123.52 265.92-348.16 480.96-382.4 9.92 44.16 37.44 90.56 17.28 136-68.8 179.52-242.88 305.6-285.44 496.32 5.12 11.52 16 34.88 21.12 46.4 69.76-28.16 137.6-60.48 203.84-95.36-81.6 117.76-194.24 257.92-354.88 237.76-56-248.32 172.16-422.080 250.88-635.52-200.32 108.48-315.52 313.6-457.28 483.2-31.68 37.76-95.36 100.16-124.8 25.28 59.52-215.68 249.28-374.080 291.2-599.68-146.88 35.2-272 127.040-419.2 160.32z" fill="#607D8B" p-id="4323"></path></svg>